<?xml version="1.0" encoding="utf-8"?>
<!-- Generator: Adobe Illustrator 15.0.0, SVG Export Plug-In . SVG Version: 6.00 Build 0)  -->
<!DOCTYPE svg PUBLIC "-//W3C//DTD SVG 1.1//EN" "http://www.w3.org/Graphics/SVG/1.1/DTD/svg11.dtd">
<svg version="1.1" id="图层_1" xmlns="http://www.w3.org/2000/svg" xmlns:xlink="http://www.w3.org/1999/xlink" x="0px" y="0px"
	 width="595.28px" height="595.28px" viewBox="0 0 595.28 595.28" enable-background="new 0 0 595.28 595.28" xml:space="preserve">
<g>
	<g>
		<g>
			<path fill="#9B0000" d="M68.021,365.416l-0.11,0.047c-0.646-0.345-1.448-0.731-2.404-1.159c-0.934-0.423-1.928-0.853-2.973-1.28
				l-0.044-0.114l0.195-0.431l0.114-0.037c0.257,0.087,0.503,0.174,0.737,0.252c0.423,0.156,0.696,0.228,0.837,0.237
				c0.099,0,0.207-0.06,0.327-0.168c0.192-0.191,0.644-1.06,1.356-2.642l0.799-1.768c0.246-0.532,0.54-1.207,0.888-2.035
				l0.228-0.539c0.11-0.234,0.11-0.374,0.012-0.42c-0.039-0.016-0.209-0.031-0.495-0.029c-0.783,0.006-1.46,0.02-2.025,0.035
				l-0.06-0.087c0.093-0.282,0.18-0.604,0.255-0.976l0.033-0.05c1.476,0.225,3.164,0.395,5.06,0.503l0.103,0.172
				c-0.147,0.272-0.36,0.679-0.642,1.213c-0.11,0.199-0.377,0.75-0.807,1.647l-1.284,2.791c-0.903,1.992-1.355,3.081-1.355,3.261
				c-0.006,0.124,0.037,0.23,0.125,0.288c0.141,0.128,0.563,0.377,1.272,0.743l0.054,0.107L68.021,365.416z"/>
			<path fill="#9B0000" d="M89.544,367.067c-0.083,0.604-0.272,1.134-0.584,1.563c-0.582,0.832-1.408,1.343-2.491,1.528
				c-0.447,0.085-0.975,0.077-1.584-0.002c-1.308-0.176-2.25-0.752-2.832-1.732c-0.263-0.432-0.348-0.976-0.263-1.619
				c0.104-0.783,0.47-1.387,1.101-1.805c0.207-0.129,0.642-0.321,1.306-0.537c-1.077-0.741-1.545-1.65-1.404-2.724
				c0.165-1.211,0.894-2.009,2.189-2.411c0.566-0.167,1.186-0.209,1.862-0.12c0.988,0.128,1.747,0.458,2.257,0.98
				c0.488,0.501,0.681,1.089,0.596,1.773c-0.127,0.929-0.781,1.619-1.959,2.058c0.768,0.414,1.288,0.872,1.561,1.373
				C89.554,365.834,89.629,366.406,89.544,367.067z M87.49,367.706c0.103-0.747-0.199-1.365-0.892-1.836
				c-0.453-0.313-0.94-0.608-1.47-0.892l-0.225-0.107c-0.894,0.448-1.394,1.104-1.512,1.965c-0.068,0.495-0.023,0.901,0.147,1.233
				c0.356,0.741,0.948,1.174,1.764,1.284c0.579,0.075,1.062-0.042,1.462-0.34C87.175,368.696,87.42,368.265,87.49,367.706z
				 M88.194,361.983c0.064-0.511-0.044-0.935-0.344-1.294c-0.298-0.353-0.735-0.568-1.312-0.643
				c-0.524-0.075-0.951,0.016-1.297,0.27c-0.325,0.231-0.505,0.547-0.565,0.949c-0.048,0.391,0.089,0.779,0.412,1.145
				c0.178,0.205,0.449,0.408,0.802,0.625c0.124,0.087,0.317,0.195,0.571,0.345l0.447,0.247
				C87.661,363.313,88.09,362.763,88.194,361.983z"/>
			<path fill="#9B0000" d="M107.892,363.096c0.189,1.383,0.07,2.559-0.354,3.535c-0.441,1.03-1.099,1.896-1.975,2.588
				c-0.899,0.711-1.94,1.148-3.11,1.311l-0.754-0.414l0.167-0.33c0.18,0.027,0.395,0.027,0.656-0.006
				c0.896-0.124,1.642-0.536,2.236-1.23c0.234-0.278,0.441-0.636,0.615-1.069c0.282-0.687,0.408-1.659,0.377-2.906
				c-0.758,0.829-1.193,1.261-1.286,1.288c-0.363,0.174-0.768,0.29-1.205,0.352c-0.773,0.108-1.429-0.062-1.98-0.501
				c-0.598-0.479-0.963-1.186-1.089-2.129c-0.217-1.519,0.224-2.72,1.308-3.611c0.512-0.42,1.174-0.687,1.998-0.795
				c1.542-0.221,2.733,0.282,3.564,1.479C107.475,361.25,107.745,362.061,107.892,363.096z M105.525,362.605
				c-0.137-0.959-0.391-1.646-0.768-2.071c-0.377-0.417-0.834-0.588-1.366-0.521c-0.665,0.099-1.073,0.479-1.214,1.166
				c-0.082,0.365-0.093,0.783-0.023,1.263c0.116,0.799,0.368,1.398,0.752,1.779c0.366,0.365,0.816,0.505,1.344,0.43
				c0.687-0.085,1.1-0.424,1.257-0.998C105.579,363.39,105.579,363.039,105.525,362.605z"/>
			<path fill="#9B0000" d="M126.232,359.852c0.25,0.56,0.358,1.108,0.319,1.631c-0.069,1.012-0.516,1.882-1.344,2.603
				c-0.343,0.306-0.795,0.579-1.362,0.816c-1.208,0.522-2.307,0.522-3.307-0.01c-0.453-0.241-0.809-0.661-1.067-1.239
				c-0.315-0.731-0.315-1.447,0-2.128c0.108-0.218,0.387-0.6,0.845-1.135c-1.315-0.073-2.186-0.609-2.615-1.596
				c-0.491-1.122-0.282-2.189,0.627-3.201c0.391-0.442,0.897-0.795,1.524-1.077c0.913-0.393,1.731-0.51,2.437-0.32
				c0.675,0.174,1.154,0.582,1.427,1.21c0.381,0.863,0.174,1.791-0.609,2.775c0.87-0.044,1.557,0.073,2.046,0.356
				C125.6,358.794,125.959,359.229,126.232,359.852z M122.443,356.202c-0.208-0.466-0.53-0.779-0.965-0.924
				c-0.441-0.151-0.92-0.108-1.453,0.127c-0.478,0.207-0.806,0.507-0.969,0.899c-0.153,0.369-0.153,0.728,0.012,1.099
				c0.163,0.369,0.479,0.619,0.946,0.777c0.251,0.072,0.588,0.114,1.005,0.114c0.149,0.006,0.372,0.006,0.666,0l0.507-0.027
				C122.676,357.614,122.759,356.922,122.443,356.202z M124.811,361.461c-0.3-0.69-0.876-1.062-1.716-1.114
				c-0.551-0.03-1.122-0.028-1.719,0.01l-0.25,0.012c-0.53,0.848-0.623,1.677-0.274,2.466c0.197,0.455,0.455,0.783,0.764,0.99
				c0.696,0.453,1.419,0.505,2.178,0.176c0.526-0.228,0.892-0.59,1.077-1.058C125.057,362.469,125.033,361.974,124.811,361.461z"/>
		</g>
		<g>
			<path fill="#9B0000" d="M64.22,225.096c-9.417,3.976-17.86,9.676-25.115,16.93c-7.257,7.252-12.95,15.706-16.929,25.113
				c-4.121,9.741-6.212,20.083-6.212,30.752c0,10.667,2.091,21.015,6.212,30.752c3.979,9.407,9.672,17.852,16.929,25.107
				c7.254,7.255,15.698,12.948,25.115,16.927c9.734,4.121,20.077,6.21,30.743,6.21c10.664,0,21.013-2.089,30.754-6.21
				c9.407-3.979,17.855-9.672,25.109-16.927c7.258-7.256,12.952-15.7,16.926-25.107c4.125-9.737,6.214-20.086,6.214-30.752
				c0-10.67-2.088-21.011-6.214-30.752c-3.974-9.407-9.668-17.861-16.926-25.113c-7.254-7.254-15.702-12.954-25.109-16.93
				c-9.742-4.112-20.09-6.21-30.754-6.21C84.297,218.886,73.954,220.984,64.22,225.096z M65.234,368.271
				c-9.096-3.843-17.265-9.351-24.278-16.369c-7.022-7.009-12.532-15.186-16.373-24.275c-3.984-9.415-6-19.42-6-29.734
				s2.015-20.319,6-29.741c3.841-9.094,9.351-17.263,16.373-24.276c7.013-7.017,15.182-12.532,24.278-16.381
				c9.411-3.982,19.416-6.003,29.729-6.003s20.316,2.021,29.733,6.003c9.102,3.849,17.265,9.364,24.281,16.381
				c7.022,7.013,12.525,15.182,16.374,24.276c3.986,9.422,6.003,19.427,6.003,29.741s-2.017,20.319-6.003,29.734
				c-3.849,9.09-9.351,17.267-16.374,24.275c-7.017,7.019-15.18,12.526-24.281,16.369c-9.417,3.986-19.419,5.995-29.733,5.995
				S74.645,372.257,65.234,368.271z"/>
		</g>
		<path fill="#9B0000" d="M72.221,244.055c-6.955,2.939-13.206,7.152-18.559,12.521c-5.369,5.371-9.583,11.61-12.527,18.567
			c-3.044,7.206-4.587,14.855-4.587,22.74c0,7.889,1.543,15.538,4.587,22.744c2.944,6.953,7.158,13.196,12.527,18.564
			c5.353,5.365,11.604,9.579,18.559,12.52c7.208,3.058,14.85,4.595,22.738,4.595s15.54-1.537,22.746-4.595
			c6.959-2.94,13.208-7.154,18.572-12.52c5.365-5.368,9.57-11.607,12.515-18.564c3.044-7.206,4.595-14.854,4.595-22.744
			c0-7.885-1.551-15.534-4.595-22.74c-2.945-6.957-7.15-13.196-12.515-18.567c-5.365-5.369-11.613-9.581-18.572-12.521
			c-7.206-3.05-14.857-4.589-22.746-4.589S79.429,241.005,72.221,244.055z M72.916,350.085c-6.746-2.849-12.809-6.934-18.015-12.14
			c-5.203-5.206-9.283-11.26-12.138-18.006c-2.95-6.983-4.452-14.4-4.452-22.057c0-7.645,1.502-15.064,4.452-22.053
			c2.854-6.752,6.935-12.811,12.138-18.006c5.206-5.206,11.27-9.293,18.015-12.14c6.982-2.961,14.395-4.454,22.044-4.454
			s15.072,1.493,22.061,4.454c6.746,2.847,12.803,6.934,18.006,12.14c5.206,5.195,9.287,11.254,12.144,18.006
			c2.957,6.989,4.448,14.408,4.448,22.053c0,7.657-1.491,15.074-4.448,22.057c-2.856,6.746-6.938,12.8-12.144,18.006
			c-5.203,5.206-11.26,9.291-18.006,12.14c-6.989,2.961-14.412,4.454-22.061,4.454S79.897,353.046,72.916,350.085z"/>
		<g>
			<path fill="#9B0000" d="M27.958,318.118c0.555-0.209,1.066-0.278,1.549-0.201c0.481,0.063,0.922,0.259,1.325,0.553
				c0.414,0.315,0.773,0.718,1.089,1.197s0.6,1.046,0.849,1.7l0.304,0.781l2.727-1.033c0.165-0.058,0.294-0.143,0.387-0.257
				c0.099-0.108,0.153-0.265,0.153-0.466c0.005-0.108-0.01-0.278-0.054-0.499c-0.037-0.227-0.076-0.422-0.12-0.563l0.54-0.206
				l2.031,5.318l-0.54,0.201c-0.064-0.124-0.147-0.294-0.261-0.501c-0.108-0.217-0.195-0.354-0.267-0.434
				c-0.141-0.148-0.277-0.235-0.406-0.251c-0.13-0.012-0.278,0.014-0.472,0.081l-6.862,2.616c-0.162,0.066-0.288,0.144-0.381,0.252
				c-0.099,0.093-0.153,0.251-0.159,0.468c-0.006,0.147,0.012,0.333,0.05,0.564c0.037,0.23,0.068,0.402,0.099,0.511l-0.54,0.205
				l-2.041-5.365c-0.485-1.247-0.644-2.269-0.481-3.04C26.646,318.984,27.136,318.434,27.958,318.118z M29.313,320.642
				c-0.724,0.278-1.215,0.633-1.453,1.062c-0.246,0.438-0.218,1.018,0.064,1.771l0.217,0.572l4.268-1.635l-0.114-0.29
				c-0.282-0.736-0.669-1.237-1.164-1.501C30.636,320.357,30.031,320.369,29.313,320.642z"/>
			<path fill="#9B0000" d="M25.194,301.766l0.062,0.572c-0.368,0.177-0.739,0.469-1.108,0.857c-0.365,0.395-0.561,0.758-0.594,1.108
				c-0.015,0.139-0.015,0.34,0.006,0.603c0.021,0.258,0.042,0.48,0.064,0.635l0.176,1.495l3.986-0.464l-0.124-1.057
				c-0.031-0.263-0.085-0.495-0.178-0.708c-0.087-0.206-0.23-0.391-0.431-0.547c-0.118-0.097-0.331-0.186-0.629-0.272
				c-0.29-0.073-0.545-0.118-0.752-0.128l-0.066-0.572l4.299-0.501l0.071,0.576c-0.203,0.041-0.451,0.142-0.745,0.304
				c-0.294,0.156-0.495,0.286-0.601,0.408c-0.157,0.18-0.255,0.377-0.292,0.6c-0.045,0.231-0.045,0.479-0.012,0.764l0.122,1.06
				l2.988-0.363c0.31-0.031,0.555-0.079,0.735-0.145c0.174-0.072,0.304-0.171,0.391-0.312c0.075-0.124,0.112-0.304,0.12-0.524
				c0.005-0.211-0.012-0.497-0.056-0.856c-0.02-0.171-0.041-0.372-0.082-0.613c-0.025-0.238-0.069-0.445-0.112-0.613
				c-0.044-0.201-0.104-0.387-0.176-0.559c-0.069-0.171-0.151-0.294-0.261-0.372c-0.261-0.206-0.651-0.423-1.176-0.659
				c-0.52-0.231-0.903-0.381-1.164-0.444l-0.06-0.53l3.239-0.174l1.132,9.701L33.4,310.1c-0.025-0.136-0.07-0.321-0.124-0.551
				c-0.06-0.234-0.114-0.396-0.159-0.49c-0.103-0.182-0.219-0.286-0.342-0.34c-0.124-0.053-0.285-0.067-0.47-0.039l-7.297,0.848
				c-0.174,0.021-0.317,0.058-0.425,0.129c-0.108,0.072-0.195,0.215-0.261,0.422c-0.044,0.136-0.078,0.321-0.099,0.559
				c-0.02,0.24-0.033,0.41-0.033,0.534l-0.57,0.069l-1.073-9.165L25.194,301.766z"/>
			<path fill="#9B0000" d="M34.539,282.507l-0.582,4.071c-1.041,0.478-1.905,0.913-2.613,1.319
				c-0.708,0.402-1.596,0.919-2.669,1.547l-0.054,0.371l3.249,0.47c0.182,0.021,0.327,0.016,0.458-0.027
				c0.129-0.051,0.244-0.159,0.359-0.339c0.048-0.079,0.108-0.203,0.168-0.363c0.066-0.168,0.12-0.335,0.163-0.503l0.568,0.081
				l-0.781,5.477l-0.57-0.081c0.013-0.129,0.021-0.315,0.037-0.559c0.018-0.242,0.008-0.408-0.016-0.516
				c-0.042-0.178-0.12-0.317-0.228-0.406c-0.108-0.081-0.259-0.133-0.447-0.174l-7.309-1.033c-0.17-0.021-0.321-0.021-0.441,0.021
				c-0.126,0.037-0.246,0.153-0.366,0.331c-0.093,0.138-0.174,0.323-0.246,0.524c-0.077,0.201-0.131,0.371-0.163,0.501l-0.566-0.082
				l0.807-5.663l0.57,0.087c-0.006,0.149-0.012,0.334-0.016,0.545c0,0.217,0.01,0.402,0.039,0.551
				c0.033,0.201,0.112,0.34,0.244,0.417c0.129,0.085,0.271,0.136,0.435,0.163l3.485,0.495l0.042-0.302
				c-0.294-0.421-0.642-0.922-1.056-1.493c-0.414-0.572-0.762-1.021-1.029-1.342c-0.381-0.439-0.681-0.778-0.903-0.994
				c-0.229-0.217-0.435-0.342-0.615-0.368c-0.089-0.012-0.162,0.072-0.23,0.232c-0.076,0.17-0.139,0.439-0.211,0.801l-0.572-0.079
				l0.644-4.481l0.564,0.083c-0.015,0.545,0.023,1.015,0.104,1.396c0.087,0.387,0.267,0.775,0.538,1.188
				c0.393,0.576,0.735,1.056,1.029,1.438c0.288,0.385,0.665,0.873,1.122,1.474c0.636-0.377,1.41-0.839,2.327-1.368
				c0.913-0.534,1.806-1.067,2.677-1.601c0.222-0.141,0.441-0.3,0.651-0.48c0.213-0.186,0.395-0.404,0.54-0.634
				c0.072-0.116,0.132-0.248,0.18-0.393c0.054-0.149,0.085-0.278,0.108-0.387L34.539,282.507z"/>
			<path fill="#9B0000" d="M38.475,272.172l-2.156,5.365l-0.534-0.211c0.046-0.129,0.099-0.311,0.18-0.563
				c0.072-0.238,0.114-0.414,0.114-0.522c0-0.195-0.042-0.346-0.13-0.447c-0.087-0.108-0.218-0.201-0.393-0.271l-6.854-2.743
				c-0.157-0.058-0.298-0.089-0.445-0.071c-0.137,0.013-0.278,0.081-0.417,0.23c-0.095,0.089-0.203,0.232-0.34,0.429
				c-0.13,0.195-0.24,0.368-0.313,0.505l-0.536-0.207l2.145-5.373l0.534,0.213c-0.039,0.143-0.089,0.323-0.143,0.54
				c-0.058,0.211-0.091,0.396-0.101,0.557c-0.011,0.207,0.031,0.35,0.132,0.464c0.101,0.11,0.232,0.197,0.395,0.25l6.848,2.747
				c0.159,0.073,0.315,0.099,0.447,0.079c0.147-0.016,0.288-0.089,0.424-0.238c0.083-0.082,0.188-0.217,0.311-0.422
				c0.124-0.203,0.229-0.387,0.294-0.532L38.475,272.172z"/>
			<path fill="#9B0000" d="M40.149,251.039c-0.069,0.116-0.162,0.283-0.276,0.524c-0.114,0.222-0.168,0.46-0.165,0.711
				c0,0.229,0.114,0.466,0.329,0.712c0.216,0.253,0.58,0.557,1.081,0.915l6.065,4.357l-0.762,1.058L36.1,259.881l3.969,2.839
				c0.497,0.36,0.894,0.596,1.193,0.719c0.304,0.114,0.572,0.136,0.789,0.074c0.168-0.041,0.369-0.151,0.604-0.336
				c0.24-0.195,0.417-0.344,0.54-0.468l0.468,0.331l-2.607,3.64l-0.47-0.334c0.099-0.165,0.197-0.362,0.296-0.592
				c0.097-0.229,0.149-0.455,0.151-0.652c-0.01-0.242-0.108-0.478-0.298-0.694c-0.192-0.229-0.563-0.538-1.112-0.93l-4.013-2.882
				c-0.199-0.139-0.412-0.248-0.63-0.312c-0.222-0.069-0.447-0.077-0.663-0.044c-0.238,0.044-0.457,0.13-0.664,0.257
				c-0.209,0.12-0.412,0.282-0.621,0.483l-0.468-0.338l2.286-3.181l9.053-0.488l-3.224-2.313c-0.507-0.363-0.919-0.604-1.213-0.713
				c-0.3-0.122-0.555-0.143-0.783-0.087c-0.176,0.05-0.375,0.161-0.6,0.344c-0.228,0.178-0.408,0.317-0.53,0.445l-0.451-0.325
				l2.59-3.617L40.149,251.039z"/>
			<path fill="#9B0000" d="M58.196,242.459c-0.11,0.104-0.201,0.209-0.284,0.29c-0.082,0.087-0.165,0.211-0.267,0.366
				c-0.12,0.18-0.153,0.336-0.108,0.497c0.043,0.149,0.108,0.286,0.211,0.416l0.758,0.946c0.157,0.186,0.284,0.344,0.381,0.449
				c0.099,0.118,0.217,0.261,0.36,0.427c-0.195,0.532-0.584,1.207-1.167,2c-0.58,0.801-1.186,1.457-1.812,1.951
				c-0.588,0.48-1.212,0.83-1.866,1.062c-0.66,0.242-1.327,0.334-2.004,0.284c-0.669-0.042-1.329-0.24-1.977-0.588
				c-0.646-0.342-1.239-0.853-1.785-1.528c-0.505-0.638-0.876-1.309-1.093-2.007c-0.23-0.704-0.294-1.412-0.213-2.124
				c0.081-0.696,0.315-1.373,0.702-2.031c0.393-0.658,0.926-1.259,1.599-1.803c0.464-0.369,0.937-0.659,1.416-0.86
				c0.485-0.207,0.905-0.344,1.263-0.418l0.103-0.602l0.501-0.408l2.443,2.93l-0.505,0.402c-1.006-0.665-1.882-1.039-2.634-1.152
				c-0.745-0.101-1.431,0.093-2.052,0.59c-0.729,0.588-1.039,1.359-0.923,2.321c0.118,0.959,0.623,2,1.522,3.119
				c0.957,1.191,1.905,1.971,2.835,2.327c0.928,0.356,1.752,0.253,2.468-0.319c0.331-0.271,0.586-0.559,0.772-0.867
				c0.174-0.309,0.282-0.59,0.321-0.832l-1.317-1.649c-0.11-0.134-0.225-0.238-0.348-0.275c-0.126-0.062-0.288-0.062-0.495-0.006
				c-0.159,0.042-0.338,0.108-0.534,0.217c-0.201,0.099-0.372,0.191-0.49,0.265l-0.361-0.439l4.22-3.404L58.196,242.459z"/>
			<path fill="#9B0000" d="M82.456,226.872c-0.135,0.054-0.325,0.139-0.576,0.261c-0.246,0.114-0.441,0.263-0.584,0.436
				c-0.152,0.162-0.224,0.41-0.216,0.737c0.006,0.319,0.099,0.787,0.255,1.406l1.001,3.737c0.294,1.098,0.153,2.081-0.414,2.947
				c-0.573,0.872-1.47,1.472-2.7,1.806c-1.437,0.372-2.636,0.352-3.597-0.083c-0.959-0.437-1.59-1.232-1.895-2.387l-1.377-5.137
				c-0.039-0.17-0.108-0.3-0.207-0.398c-0.091-0.103-0.24-0.176-0.445-0.23c-0.141-0.027-0.308-0.031-0.497-0.027
				c-0.189,0.019-0.344,0.027-0.455,0.046l-0.149-0.557l5.272-1.408l0.149,0.553c-0.149,0.05-0.3,0.108-0.445,0.18
				c-0.153,0.065-0.3,0.143-0.447,0.238c-0.17,0.101-0.263,0.236-0.294,0.385c-0.023,0.151-0.012,0.304,0.031,0.479l1.352,5.06
				c0.271,0.996,0.681,1.667,1.24,1.998c0.567,0.341,1.269,0.387,2.112,0.17c0.818-0.225,1.404-0.642,1.737-1.271
				c0.336-0.625,0.375-1.424,0.114-2.393l-0.903-3.41c-0.164-0.607-0.327-1.042-0.491-1.329c-0.163-0.271-0.348-0.46-0.553-0.547
				c-0.153-0.068-0.391-0.104-0.719-0.104c-0.327-0.006-0.561,0-0.687,0.016l-0.153-0.571l4.394-1.172L82.456,226.872z"/>
			<path fill="#9B0000" d="M102.129,226.133c-0.138,0.009-0.333,0.031-0.588,0.062c-0.25,0.041-0.486,0.136-0.687,0.279
				c-0.186,0.135-0.317,0.359-0.396,0.681c-0.083,0.315-0.126,0.789-0.132,1.414l-0.103,7.461l-1.307-0.013l-6.357-8.154
				l-0.069,4.887c-0.008,0.605,0.025,1.067,0.101,1.383c0.077,0.321,0.207,0.547,0.383,0.696c0.129,0.118,0.338,0.207,0.63,0.294
				c0.285,0.093,0.511,0.155,0.687,0.182l-0.005,0.576l-4.474-0.067l0.004-0.563c0.191-0.02,0.404-0.056,0.654-0.106
				c0.251-0.052,0.457-0.141,0.621-0.248c0.195-0.145,0.325-0.35,0.402-0.64c0.077-0.282,0.12-0.764,0.12-1.439l0.071-4.945
				c0.004-0.249-0.029-0.476-0.104-0.696c-0.071-0.223-0.184-0.408-0.342-0.567c-0.17-0.172-0.363-0.306-0.584-0.402
				c-0.217-0.093-0.474-0.178-0.75-0.234v-0.582l3.918,0.058l5.576,7.148l0.058-3.963c0.006-0.625-0.025-1.093-0.103-1.408
				c-0.081-0.308-0.209-0.536-0.387-0.687c-0.135-0.108-0.348-0.21-0.619-0.298c-0.278-0.089-0.503-0.139-0.673-0.182l0.016-0.555
				l4.45,0.06L102.129,226.133z"/>
			<path fill="#9B0000" d="M113.354,238.591l-5.601-1.442l0.145-0.563c0.125,0.027,0.317,0.068,0.572,0.108
				c0.25,0.048,0.428,0.062,0.538,0.048c0.192-0.023,0.331-0.089,0.43-0.193c0.093-0.093,0.164-0.24,0.212-0.412l1.853-7.154
				c0.037-0.159,0.042-0.313,0.016-0.453c-0.033-0.135-0.126-0.267-0.289-0.387c-0.099-0.081-0.251-0.167-0.464-0.282
				c-0.207-0.104-0.391-0.191-0.551-0.25l0.143-0.551l5.601,1.449l-0.147,0.553c-0.141-0.021-0.323-0.052-0.543-0.079
				c-0.219-0.029-0.408-0.039-0.567-0.029c-0.201,0.013-0.348,0.083-0.447,0.191c-0.091,0.118-0.162,0.257-0.205,0.417l-1.851,7.148
				c-0.044,0.168-0.044,0.325-0.018,0.458c0.033,0.134,0.132,0.269,0.29,0.393c0.085,0.07,0.244,0.153,0.46,0.255
				c0.219,0.093,0.408,0.167,0.561,0.223L113.354,238.591z"/>
			<path fill="#9B0000" d="M133.862,237.195c-0.151-0.058-0.302-0.108-0.451-0.134c-0.154-0.033-0.323-0.042-0.5-0.033
				c-0.24,0.008-0.447,0.048-0.611,0.12c-0.168,0.073-0.36,0.176-0.572,0.346c-0.292,0.23-0.712,0.563-1.255,1.015
				c-0.545,0.445-1.17,0.934-1.868,1.51c-0.621,0.507-1.302,1.074-2.037,1.688c-0.739,0.604-1.447,1.199-2.122,1.752l-1.296-0.687
				c0.18-1.809,0.366-3.634,0.545-5.497c0.189-1.862,0.315-3.158,0.37-3.893c0.017-0.265,0.011-0.479-0.027-0.636
				c-0.039-0.165-0.12-0.354-0.263-0.582c-0.103-0.151-0.201-0.283-0.296-0.377c-0.095-0.087-0.23-0.195-0.404-0.319l0.274-0.511
				l4.982,2.642l-0.261,0.499c-0.505-0.195-0.863-0.319-1.066-0.34c-0.207-0.027-0.327,0.006-0.383,0.099
				c-0.023,0.05-0.041,0.106-0.056,0.165c-0.014,0.058-0.029,0.145-0.052,0.263c-0.064,0.454-0.139,1.207-0.238,2.274
				c-0.093,1.063-0.251,2.688-0.479,4.842c1.019-0.854,1.872-1.578,2.566-2.175c0.688-0.594,1.299-1.124,1.82-1.58
				c0.259-0.225,0.491-0.434,0.687-0.642c0.201-0.197,0.333-0.352,0.395-0.48c0.075-0.135,0.035-0.306-0.124-0.51
				c-0.15-0.192-0.487-0.466-1.009-0.795l0.271-0.517l3.735,1.975L133.862,237.195z"/>
			<path fill="#9B0000" d="M145.188,249.304l-0.423-0.393c0.17-0.387,0.263-0.845,0.28-1.377c0.02-0.526-0.068-0.936-0.267-1.22
				c-0.083-0.129-0.224-0.278-0.41-0.451c-0.184-0.193-0.342-0.333-0.466-0.453l-1.106-1.011l-2.706,2.961l0.779,0.731
				c0.196,0.172,0.396,0.312,0.598,0.408c0.201,0.099,0.436,0.151,0.692,0.133c0.151-0.01,0.368-0.077,0.64-0.211
				c0.273-0.133,0.497-0.263,0.666-0.393l0.417,0.383l-2.92,3.203l-0.426-0.387c0.12-0.167,0.24-0.408,0.358-0.718
				c0.122-0.315,0.186-0.551,0.186-0.71c0-0.232-0.054-0.448-0.168-0.646c-0.118-0.195-0.283-0.387-0.495-0.583l-0.784-0.711
				l-2.026,2.218c-0.211,0.23-0.358,0.431-0.457,0.596c-0.085,0.166-0.118,0.331-0.085,0.487c0.02,0.147,0.108,0.313,0.24,0.472
				c0.141,0.167,0.34,0.374,0.613,0.625c0.126,0.108,0.277,0.25,0.457,0.408c0.18,0.155,0.344,0.283,0.495,0.387
				c0.163,0.124,0.334,0.226,0.493,0.309c0.172,0.087,0.313,0.118,0.445,0.112c0.327-0.02,0.771-0.112,1.315-0.276
				c0.545-0.17,0.94-0.306,1.172-0.428l0.387,0.356l-2.329,2.253l-7.202-6.578l0.393-0.422c0.103,0.083,0.255,0.191,0.451,0.334
				c0.195,0.136,0.336,0.223,0.441,0.259c0.189,0.072,0.348,0.082,0.472,0.041c0.132-0.046,0.263-0.145,0.383-0.282l4.959-5.417
				c0.12-0.128,0.195-0.257,0.232-0.375c0.041-0.125,0.012-0.29-0.075-0.504c-0.052-0.124-0.153-0.281-0.292-0.476
				c-0.137-0.195-0.24-0.331-0.317-0.427l0.379-0.418l6.812,6.218L145.188,249.304z"/>
			<path fill="#9B0000" d="M150.595,269.754l-2.167-3.367c0.513-1.147,0.909-2.081,1.182-2.801c0.277-0.723,0.577-1.595,0.897-2.607
				l-0.207-0.323l-2.644,1.711c-0.155,0.089-0.263,0.195-0.327,0.319c-0.068,0.12-0.083,0.284-0.05,0.489
				c0.017,0.089,0.058,0.24,0.135,0.429c0.072,0.186,0.143,0.346,0.201,0.47l-0.483,0.309l-3.021-4.682l0.483-0.315
				c0.089,0.114,0.209,0.263,0.36,0.449c0.155,0.18,0.267,0.304,0.354,0.36c0.168,0.118,0.319,0.167,0.45,0.161
				c0.138-0.01,0.287-0.068,0.438-0.174l6.185-3.978c0.14-0.099,0.248-0.201,0.313-0.31c0.079-0.108,0.089-0.278,0.056-0.495
				c-0.039-0.17-0.093-0.356-0.176-0.563c-0.075-0.199-0.139-0.36-0.189-0.472l0.484-0.31l3.169,4.909
				c0.706,1.104,1.072,2.048,1.101,2.841c0.02,0.789-0.317,1.404-1.013,1.862c-0.615,0.396-1.227,0.538-1.826,0.429
				c-0.604-0.114-1.24-0.464-1.909-1.044c-0.186,0.507-0.393,1.104-0.625,1.785c-0.242,0.675-0.474,1.377-0.71,2.095
				c-0.081,0.228-0.163,0.536-0.25,0.903c-0.093,0.372-0.108,0.654-0.05,0.861c0.035,0.114,0.078,0.244,0.159,0.406
				c0.072,0.16,0.126,0.269,0.159,0.333L150.595,269.754z M154.405,261.366c0.588-0.379,0.903-0.818,0.963-1.325
				c0.062-0.495-0.104-1.042-0.495-1.646l-0.317-0.487l-3.655,2.362l0.298,0.47c0.387,0.604,0.849,0.969,1.377,1.093
				C153.109,261.96,153.72,261.806,154.405,261.366z"/>
			<path fill="#9B0000" d="M153.512,278.305c-0.205-0.604-0.319-1.197-0.346-1.768c-0.027-0.572,0-1.073,0.085-1.502l-0.652-0.323
				l-0.195-0.59l3.543-1.274l0.201,0.604c-0.294,0.25-0.586,0.538-0.894,0.868c-0.304,0.334-0.553,0.694-0.76,1.066
				c-0.215,0.377-0.362,0.785-0.438,1.207c-0.073,0.41-0.037,0.853,0.12,1.323c0.211,0.629,0.524,1.06,0.942,1.298
				c0.418,0.232,0.865,0.275,1.333,0.114c0.383-0.124,0.656-0.377,0.818-0.749c0.163-0.371,0.238-0.896,0.229-1.551
				c0-0.435,0-0.832-0.006-1.197c-0.004-0.366,0.006-0.708,0.016-1.033c0.044-0.752,0.257-1.375,0.644-1.856
				c0.381-0.487,0.882-0.843,1.491-1.035c0.381-0.133,0.778-0.176,1.188-0.125c0.412,0.042,0.816,0.188,1.203,0.41
				c0.368,0.221,0.714,0.542,1.039,0.959c0.333,0.425,0.588,0.913,0.773,1.474c0.186,0.551,0.281,1.089,0.292,1.619
				c0.012,0.536-0.015,0.956-0.073,1.286l0.555,0.283l0.205,0.609l-3.352,1.191l-0.201-0.604c0.31-0.263,0.625-0.553,0.937-0.866
				c0.309-0.315,0.557-0.613,0.735-0.909c0.193-0.319,0.313-0.654,0.379-1c0.056-0.352,0.023-0.731-0.114-1.133
				c-0.168-0.5-0.447-0.858-0.832-1.091c-0.393-0.226-0.795-0.271-1.205-0.127c-0.391,0.129-0.667,0.377-0.82,0.733
				c-0.159,0.362-0.234,0.873-0.224,1.515c-0.004,0.387,0,0.779,0.006,1.176c0,0.398-0.006,0.75-0.021,1.067
				c-0.027,0.76-0.217,1.393-0.555,1.894c-0.336,0.511-0.845,0.878-1.526,1.099c-0.423,0.141-0.874,0.182-1.338,0.118
				c-0.468-0.069-0.892-0.226-1.269-0.479c-0.418-0.273-0.783-0.628-1.106-1.068C154.003,279.5,153.73,278.954,153.512,278.305z"/>
			<path fill="#9B0000" d="M156.921,294.318l-0.588-5.75l0.565-0.058c0.023,0.124,0.06,0.315,0.104,0.574
				c0.05,0.255,0.093,0.428,0.147,0.515c0.087,0.18,0.195,0.298,0.327,0.344c0.12,0.054,0.277,0.069,0.46,0.054l7.343-0.758
				c0.168-0.018,0.313-0.064,0.437-0.139c0.114-0.078,0.207-0.213,0.261-0.404c0.041-0.118,0.072-0.304,0.097-0.54
				c0.029-0.234,0.044-0.435,0.044-0.6l0.577-0.052l0.59,5.746l-0.567,0.062c-0.033-0.145-0.071-0.329-0.12-0.538
				c-0.048-0.215-0.108-0.402-0.176-0.545c-0.081-0.18-0.193-0.3-0.331-0.346c-0.137-0.05-0.3-0.076-0.466-0.05l-7.333,0.756
				c-0.182,0.021-0.325,0.062-0.449,0.145c-0.112,0.078-0.199,0.213-0.259,0.404c-0.033,0.108-0.054,0.283-0.077,0.521
				c-0.016,0.242-0.02,0.443-0.01,0.601L156.921,294.318z"/>
			<path fill="#9B0000" d="M163.309,311.147l0.068-0.568c0.462-0.093,0.957-0.278,1.5-0.551c0.547-0.273,0.855-0.544,0.927-0.822
				c0.033-0.147,0.075-0.349,0.12-0.57c0.039-0.229,0.072-0.42,0.087-0.574l0.039-0.354l-8.1-0.961
				c-0.176-0.016-0.335-0.01-0.474,0.042c-0.143,0.051-0.263,0.159-0.365,0.337c-0.048,0.106-0.114,0.272-0.19,0.503
				c-0.077,0.239-0.131,0.434-0.168,0.594l-0.572-0.065l0.687-5.787l0.564,0.066c0,0.145,0,0.35-0.006,0.603
				c-0.006,0.264,0.006,0.434,0.039,0.532c0.054,0.197,0.141,0.345,0.267,0.418c0.12,0.087,0.276,0.127,0.458,0.154l8.171,0.969
				l0.041-0.344c0.021-0.16,0.033-0.361,0.044-0.594c0.017-0.227,0.023-0.414,0.023-0.576c-0.006-0.28-0.24-0.625-0.709-1.012
				c-0.464-0.393-0.903-0.69-1.327-0.892l0.064-0.572l2.967,0.354l-1.191,10.026L163.309,311.147z"/>
			<path fill="#9B0000" d="M159.921,329.183c0.042-0.173,0.069-0.337,0.081-0.481c0.01-0.155,0.006-0.308-0.023-0.459
				c-0.031-0.235-0.108-0.47-0.217-0.681c-0.116-0.221-0.25-0.446-0.402-0.675c-0.321-0.458-0.675-0.947-1.058-1.47
				c-0.391-0.522-0.811-1.093-1.273-1.708c-0.3-0.4-0.532-0.665-0.717-0.809c-0.191-0.129-0.542-0.296-1.052-0.489l-1.377-0.531
				c-0.163-0.063-0.327-0.093-0.468-0.074c-0.147,0.018-0.292,0.093-0.436,0.242c-0.065,0.069-0.164,0.209-0.321,0.444
				c-0.147,0.229-0.251,0.408-0.3,0.522l-0.545-0.207l2.093-5.442l0.538,0.201c-0.044,0.136-0.091,0.327-0.159,0.575
				c-0.066,0.257-0.099,0.437-0.103,0.545c0.01,0.201,0.066,0.35,0.159,0.464c0.103,0.099,0.238,0.197,0.408,0.264l1.716,0.653
				c0.151,0.058,0.28,0.104,0.402,0.146c0.112,0.032,0.216,0.058,0.303,0.058c0.099,0,0.229-0.002,0.396-0.031
				c0.165-0.026,0.377-0.062,0.639-0.104c0.752-0.113,1.47-0.22,2.145-0.346c0.681-0.112,1.317-0.23,1.915-0.339
				c0.306-0.052,0.571-0.135,0.785-0.237c0.217-0.093,0.402-0.211,0.561-0.335c0.114-0.103,0.225-0.223,0.329-0.396
				c0.101-0.156,0.186-0.306,0.251-0.44l0.536,0.212l-2.135,5.566l-0.54-0.207c0.186-0.521,0.278-0.884,0.296-1.079
				c0.015-0.201-0.033-0.331-0.138-0.361c-0.048-0.023-0.164-0.023-0.336-0.023c-0.174,0.014-0.456,0.045-0.837,0.087
				c-0.356,0.041-0.849,0.118-1.487,0.207c-0.636,0.108-1.389,0.232-2.247,0.387c1.044,1.396,1.779,2.352,2.199,2.886
				c0.43,0.533,0.702,0.828,0.822,0.878c0.158,0.052,0.309,0.01,0.468-0.151c0.153-0.154,0.321-0.442,0.505-0.858l0.534,0.201
				l-1.371,3.6L159.921,329.183z"/>
		</g>
		<path fill="#9B0000" d="M148.702,297.888c0,29.673-24.053,53.733-53.73,53.733c-29.683,0-53.742-24.06-53.742-53.733
			c0-29.687,24.059-53.74,53.742-53.74C124.648,244.148,148.702,268.201,148.702,297.888z M87.082,252.841
			c-2.346,0-4.247,1.905-4.247,4.245v5.499c-4.429,1.017-8.931,2.667-13.428,4.941c-5.1,2.566-10.125,5.924-14.538,9.705
			c-1.721,1.472-1.922,4.065-0.447,5.783c1.476,1.721,4.06,1.918,5.787,0.453c6.907-5.916,14.925-10.295,22.626-12.409v9.428
			c-5.344,1.739-10.569,4.694-15.576,8.825c-5.628,4.655-10.871,10.679-15.579,17.922c-0.447,0.694-0.666,1.47-0.666,2.237
			c0,1.347,0.666,2.659,1.875,3.448c1.899,1.23,4.44,0.692,5.67-1.206c4.257-6.559,8.939-11.958,13.925-16.07
			c5.083-4.197,10.712-7.074,15.636-8.117c2.195-0.47,3.201-2.495,3.201-3.893c0-0.217,0-0.99,0-2.147c0-6.365,0-24.26,0-24.26
			v-0.139C91.321,254.746,89.422,252.841,87.082,252.841z M98.605,257.086v0.139c0,0,0,17.896,0,24.26c0,1.157,0,1.93,0,2.147
			c0,1.398,1.015,3.423,3.207,3.893c4.928,1.042,10.552,3.92,15.635,8.117c4.986,4.112,9.67,9.512,13.923,16.07
			c1.23,1.898,3.777,2.437,5.678,1.206c1.212-0.789,1.866-2.102,1.866-3.448c0-0.768-0.211-1.543-0.664-2.237
			c-4.707-7.243-9.95-13.268-15.58-17.922c-5-4.131-10.227-7.086-15.573-8.825v-9.428c7.697,2.114,15.722,6.493,22.628,12.409
			c1.721,1.466,4.311,1.269,5.787-0.453c1.476-1.717,1.267-4.311-0.453-5.783c-4.408-3.781-9.438-7.138-14.534-9.705
			c-4.495-2.274-8.997-3.924-13.428-4.941v-5.499c0-2.34-1.899-4.245-4.241-4.245C100.504,252.841,98.605,254.746,98.605,257.086z
			 M128.366,325.196c-1.785-4.152-3.81-7.989-6.026-11.384c-2.325-3.579-4.866-6.699-7.551-9.262
			c-2.883-2.754-5.966-4.895-9.147-6.361c-2.104-0.969-4.253-1.64-6.429-2.019v-2.497c0-2.342-1.901-4.249-4.249-4.249
			c-2.34,0-4.243,1.907-4.243,4.249v2.497c-2.178,0.379-4.329,1.05-6.423,2.019c-3.186,1.466-6.261,3.607-9.158,6.361
			c-2.683,2.563-5.226,5.683-7.544,9.262c-2.214,3.395-4.245,7.231-6.024,11.384c-0.894,2.087,0.069,4.501,2.148,5.403
			c2.085,0.886,4.497-0.081,5.394-2.162c3.216-7.518,7.262-13.718,11.699-17.945c3.189-3.05,6.51-5.03,9.908-5.928v6.676
			c0,2.298-1.688,3.197-2.468,3.671c-0.25,0.151-0.787,0.474-1.039,0.631c-1.578,1.021-3.389,2.6-5.079,4.773
			c-3.052,3.914-5.433,9.248-6.688,15.024c-0.487,2.223,0.917,4.4,3.133,4.884c2.22,0.479,4.398-0.917,4.884-3.137
			c1.005-4.596,2.825-8.766,5.142-11.727c1.176-1.512,3.576-4.056,6.357-4.056c2.787,0,5.183,2.544,6.365,4.056
			c2.315,2.961,4.143,7.131,5.143,11.727c0.481,2.22,2.667,3.616,4.877,3.137c2.214-0.483,3.626-2.661,3.141-4.884
			c-1.257-5.776-3.636-11.11-6.69-15.024c-1.692-2.174-3.506-3.753-5.073-4.773c-0.259-0.157-0.795-0.479-1.05-0.631
			c-0.773-0.474-2.464-1.373-2.464-3.671v-6.676c3.4,0.897,6.715,2.878,9.91,5.928c4.431,4.228,8.477,10.428,11.699,17.945
			c0.892,2.081,3.303,3.048,5.388,2.162C128.288,329.697,129.259,327.283,128.366,325.196z"/>
	</g>
	<g>
		<g>
			<path fill="#9B0000" d="M290.083,317.043c-0.722,0.073-1.445,0.146-2.166,0.216c-2.012,0.6-4.205,1.416-6.499,2.167
				c-2.344,0.77-5.725,2.056-8.223,0.216c-0.176-0.222-0.082-0.054-0.219-0.433c2.238-2.391,2.188-3.816,5.63-5.414
				c0.05-2.365,0.969-5.185-0.214-6.711c0.251-3.553,4.437-1.827,7.575-2.599c1.926-0.47,4.276-1.18,5.849-2.162
				c1.845-1.159,3.708-3.696,4.547-5.845c0.342-0.886-0.056-2.69,0.435-3.464c0-0.581,0-1.157,0-1.735
				c-0.167-0.325-5.529-2.089-6.282-2.598c-0.551-0.371-1.93-1.524-2.168-2.164c-0.207-0.572,0.037-1.139-0.213-1.518
				c-0.265-0.542-0.493-0.493-0.868-0.866c-1.081,0.1-1.396,0.464-1.872,0.895c-0.147,0.132-0.418,0.236-0.509,0.404
				c-0.093,0.17,0,0.364,0,0.549c0,1.766,0,3.532,0,5.297c-0.522,1.162-2.868,1.845-3.895,2.595
				c-0.869,0.942-1.735,1.878-2.599,2.816c-1.288-0.11-1.389-0.559-2.165-1.081c-1.876-8.761-2.684-16.062-8.662-20.566
				c-1.437-1.085-2.545-3.248-4.329-3.899c-0.632,1.733-1.45,3.534-1.939,5.29c-0.114,0.41,0.054,0.76-0.054,1.178
				c-1.062,4.017-1.901,8.115-2.986,12.368c-0.257,1.002-1.495,6.465-1.3,7.363c0.936,4.318,2.145,9.813,3.248,13.857
				c0.512,1.886,0.114,3.243,0.649,4.976c0.973,3.149,3.764,11.264,6.062,12.776c2.582,1.698,6.829,2.499,10.177,1.081
				c1.023-0.435,1.918-1.897,2.595-2.166c1.085,0,2.168,0,3.25,0c3.177-0.864,6.353-1.727,9.529-2.594
				c1.137-0.472,3.951-1.99,4.757-2.817c1.151-1.172,1.238-3.479,2.604-4.762c0.026-1.557-0.13-2.199-0.652-3.03
				C295.17,314.753,292.835,316.006,290.083,317.043z"/>
			<path fill="#9B0000" d="M242.236,288.682c-0.023-2.889,0.058-6.187-0.435-8.448c-0.408-1.872,0.445-4.282-0.214-5.84
				c-1.988-4.681-10.473-8.834-15.157-11.258c-1.802-0.936-1.82-2.743-4.33-3.25c-0.565-0.11-1.743,1.147-1.731,1.519
				c-0.12,2.988,2.147,4.15,3.681,6.057c0.934,1.162,1.493,2.502,2.38,3.682c1.393,1.843,3.729,3.449,4.547,5.845
				c1.325,3.864,1.37,13.627,0.434,17.971c0,1.447,0,2.886,0,4.328c-0.145,1.663-0.289,3.319-0.434,4.984
				c-1.212-0.456-2.001-1.657-3.249-2.168c-0.938-0.142-1.876-0.288-2.812-0.43c-0.872-0.541-1.441-1.551-2.595-1.953
				c-1.308-0.452-2.511,0.054-3.901-0.434c-1.503-0.526-1.971-1.729-4.329-1.73c-0.474,0.069-1.379,0.789-1.299,1.081
				c0.315,1.835,1.854,2.746,2.382,4.332c0,0.578,0,1.154,0,1.731c0.348,1.365,0.745,3.239,1.079,4.763
				c0.547,2.476-1.046,3.89-1.516,5.414c-1.905,6.196-3.011,12.449-7.858,15.657c-0.188,0.126-0.327,0.252-0.453,0.474
				c-0.112,0.189-0.139,0.724-0.145,0.846c-0.124,3.563-0.667,10.509,2.613,11.602c0.116,0.089,0.323,0.219,0.323,0.219
				c0.342,0.154,3.259,0.14,3.791,0c1.163-0.6,3.249-3.618,4.543-4.547c1.956-1.398,4.088-2.313,6.065-3.683
				c0.362-0.433,0.722-0.864,1.081-1.3c1.99-1.478,3.922-3.013,5.628-4.765c0.22-0.108,0.518-0.14,0.651,0
				c0.165,0.725,0.47,2.352,0,3.032c-0.042,3.723-0.441,6.382,1.083,8.662c0.843,0.025,2.097,0.118,2.596-0.214
				c1.7-0.635,2.53-3.499,3.249-5.199c1.855-4.377,2.296-9.528,3.466-14.722c0.072-1.805,0.141-3.606,0.217-5.413
				c1.067-4.874,0.864-10.854,0.864-16.456c0.074-2.236,0.147-4.474,0.217-6.709C242.445,291.301,242.244,289.98,242.236,288.682z
				 M230.976,320.075c0,0.936,0,1.878,0,2.813c-0.406,0.894-2.414,1.605-3.249,2.165c-0.723,0.491-1.559,1.367-2.381,1.732
				c-1.526,0.677-2.81,0.704-4.111,1.519c-1.178,0.732-2.489,1.827-3.685,2.593c-0.886,0.573-3.984,1.816-5.411,0.871
				c-0.215-0.076-0.434-0.146-0.648-0.217c0.159-2.331,1.843-3.395,2.814-4.982c1.899-3.102,4.382-5.653,6.28-8.658
				c0.143-0.507,0.29-1.01,0.431-1.519c0.698-1.063,2.098-1.949,2.599-3.243c3.793,0.077,5.796-1.837,6.497-4.768
				c0.559,0.043,0.731,0.097,1.081,0.217c0.05,2.422,0.081,5.222,0,7.577C231.154,317.343,231.467,319.298,230.976,320.075z"/>
		</g>
		<g>
			<path fill="#9B0000" d="M519.147,279.37c0.69,0.93,1.924,1.657,2.598,2.597c2.271,3.172,2.864,9.713,4.115,13.861
				c3.888-0.039,5.543-3.416,7.358-5.63c-0.004-5.373-5.502-13.627-8.66-15.805c-1.822-1.259-3.994-1.803-5.845-3.033
				c-1.951-1.298-3.032-3.162-5.413-4.116c-0.325-0.099-1.039,0.658-1.083,0.867c0,1.154,0,2.309,0,3.466
				c0.793,0.649,1.592,1.299,2.381,1.947C516.136,275.568,517.629,277.335,519.147,279.37z"/>
			<path fill="#9B0000" d="M565.479,285.433c3.365-4.355,7.865-8.374,9.96-13.855c0.6-1.567,3.205-5.384,1.517-7.58
				c-0.747-1.112-2.842-0.447-4.334-0.862c-0.668-0.19-1.161-0.915-1.728-1.083c-0.992-0.301-2.012,0.46-2.6,0.648
				c-2.73,0.871-5.082,1.149-7.579,2.163c-1.108,0.452-4.271,2.365-5.628,1.516c-0.217-0.068-0.436-0.141-0.651-0.215
				c0.233-4.158,3.16-6.608,4.551-9.958c0.402-0.973,1.64-3.557,0.862-4.764c-0.118-1.938-2.13-3.276-3.247-4.33
				c-0.356-0.296-1.98,0.248-1.95,0.868c0.082,5.51-2.235,11.482-5.409,13.635c-1.016,0.687-1.892,0.391-3.247,0.873
				c-2.146,0.745-4.409,2.917-6.928,1.077c-1.294,0.004-1.464,0.207-2.168,0.652c0.232,2.154,1.503,3.964,3.247,4.545
				c0.441,0.244,1.992,0.027,3.033,0c-0.041,1.692-1.373,3.15-2.383,3.897c0,0.723,0.063,1.286,0.219,1.735
				c2.334,0.433,2.776-0.785,4.979-0.869c-0.359,2.46-2.342,3.623-3.466,5.414c-1.474,0.298-3.624,0.5-4.978,0.65
				c-0.12,0.011-0.23,0.166-0.217,0.216c0.038,1.646,0.665,2.226,1.732,2.816c-0.586,2.261-2.417,3.835-3.685,5.628
				c-0.492,0.698-1.941,1.663-1.081,3.031c0.29,0.505,0.658,0.538,1.3,0.648c2.182-2.099,5.886-3.083,6.928-6.278
				c3.438,0.216,3.433,1.044,5.413,2.383c-0.108,1.228-0.667,2.47-1.299,3.247c-0.01,0.824,0.032,1.634,0.218,2.166
				c2.582-0.12,6.456-3.526,8.226-2.387c0.144,0,0.288,0,0.434,0c-0.313,1.46-1.95,1.501-3.031,2.168
				c-2.301,1.427-5.046,2.352-7.581,3.681c-3.425,1.8-7.22,3.83-10.39,5.846c-0.938,0.29-1.878,0.574-2.815,0.865
				c-5.158,3.056-10.042,6.828-15.372,9.741c-0.139,0.377-0.042,0.215-0.216,0.435c0.011,0.67,0.077,1.112,0.216,1.517
				c6.6,1.377,11.869-1.665,16.457-3.462c6.181-2.423,12.043-6.449,17.103-10.175c1.646-1.216,2.835-3.222,4.545-4.332
				c1.336-0.864,2.51-1.214,3.682-2.166c0.36,0,0.724,0,1.085,0c-0.377,1.325-1.316,1.845-1.951,2.816
				c-0.219,0.576-0.431,1.155-0.649,1.729c-1.155,1.085-2.31,2.168-3.462,3.249c-0.552,0.728-1.027,1.837-1.733,2.383
				c-1.738,1.336-3.655,2.611-4.979,4.33c-0.179,0.3,0.12,1.462,0.217,2.166c3.452-0.282,5.469-2.52,8.008-3.683
				c1.563-0.717,3.261-0.862,4.766-1.73c1.002-0.584,1.513-1.736,2.381-2.383c4.214-3.127,8.021-5.564,7.146-13.207
				c-1.069-0.379-2.621-0.443-3.466-1.081c-1.515,0-3.032,0-4.549,0C561.653,287.242,564.117,287.199,565.479,285.433z
				 M558.549,282.621c-0.83,1.11-1.464,2.449-2.16,3.681c-0.564-0.045-0.737-0.099-1.085-0.219c-0.635-3.186-0.87-5.632-1.947-8.013
				c-0.759-0.141-1.146-0.253-1.735,0.221c-1.276,1.069-0.354,3.905-1.947,5.193c-0.627,0.65-2.276-1.785-2.813-2.165
				c0.398-4.62,4.853-8.088,7.143-11.041c4.164,0.085,7.15,2.143,11.043,2.381C564.931,277.78,560.815,279.602,558.549,282.621z"/>
			<path fill="#9B0000" d="M512.218,302.537c0.563,1.282,1.934,2.729,2.381,4.116c0.909,0.172,1.361,0.077,2.383,0
				c1.675-1.741,2.717-3.308,3.249-6.286c0.456-2.558-4.773-8.933-6.496-9.521c-0.428-0.291-1.412-0.246-2.166-0.217
				c-0.335,1.474,0.491,5.982,0.649,7.576C512.218,299.65,512.218,301.097,512.218,302.537z"/>
			<path fill="#9B0000" d="M550.107,315.097c-1.672,2.172-8.557,2.051-11.477,3.247c-4.002,1.639-8.271,3-12.34,4.76
				c-2.701,1.174-5.514,2.793-8.227,3.899c-0.722,0.143-1.443,0.288-2.166,0.435c-1.16,0.482-2.424,1.704-3.464,2.165
				c-1.008,0.071-2.021,0.143-3.029,0.212c-1.081,0.497-1.63,1.55-2.382,2.387c0.063,3.872,2.065,4.99,3.028,7.176
				c0.193,0.44-0.018,0.892,0.438,1.485c0.331,0.354,1.315,0.736,1.944,0.864c1.533,0.312,3.711-1.065,4.764-1.517
				c4.056-1.752,7.064-4.732,10.607-6.928c1.272-0.789,3.205-1.719,4.547-2.168c1.563-0.522,2.726-0.067,4.114-0.649
				c2.516-1.049,1.454-2.75,5.196-1.513c0.154,0.578,0.521,1.054,0.647,1.513c0.424,1.512-0.493,3.357-0.214,4.549
				c0.3,1.288,0.715,1.559,0.649,3.249c-0.509,0.545-0.698,1.499-1.298,1.947c-1.849,1.385-4.849,1.94-7.362,2.598
				c-1.718,0.448-3.866-0.735-5.197,0.219c-0.145,0-0.288,0-0.433,0c0.046,0.738,0.104,1.105,0.433,1.514
				c0.641,1.963,1.852,1.296,3.899,1.948c1.998,0.64,4.137,3.475,7.579,1.514c0.724-0.412,0.99-1.45,1.943-1.729
				c1.696-0.491,3.252,0.306,4.333-0.652c1.021-0.51,1.208-1.802,1.729-2.813c0.464-0.888,1.239-2.236,1.519-3.247
				c0.404-1.481-0.383-2.83-0.648-3.681c-0.145-0.866-0.288-1.733-0.435-2.598c-0.816-2.005-2.118-3.109-2.164-6.061
				c-0.027-0.343,0.354-0.751,0.647-0.869c2.418-0.584,4.796-1.141,8.013-1.079c1.036-1.05,2.448-1.75,3.245-3.032
				c0.521-0.834,0.528-2.012,1.083-2.815c-0.002-2.081-0.737-2.286-1.515-3.464C554.992,315.913,553.097,315.072,550.107,315.097z"
				/>
		</g>
		<g>
			<path fill="#9B0000" d="M471.729,287.816c0.617-0.934,0.626-1.743,1.518-2.383c0.676-0.462-0.206-2.879-0.649-3.032
				c-8.098-1.822-8.798,4.152-12.992,7.365c-1.919,1.474-4.093,2.421-6.06,3.897c-0.146,0-0.29,0-0.434,0
				c-0.787-4.323-0.217-10.003-0.217-14.724c0-1.876,0-3.752,0-5.628c0.155-0.389,0.897-0.878,1.083-1.3
				c0.747-1.717,0.418-4.468-0.433-5.847c-1.168-1.897-3.613-2.396-5.413-3.676c-0.948-0.681-1.667-1.907-2.814-2.383
				c-1.771-0.739-3.701-0.035-5.194-1.085c-0.968,0.149-1.29,0.479-1.95,0.866c-1.902,4.98,2.775,11.985,4.112,15.59
				c1.16,3.118,1.205,12.852,0.437,16.451c-0.586,2.717,0.366,6.771-1.087,8.66c-0.821,1.132-7.911,3.531-9.743,4.332
				c-1.522,0.666-3.306,1.605-4.979,2.164c-1.853,0.621-3.63,0.787-5.194,1.735c-2.408,1.446-6.255,4.075-8.877,4.976
				c-0.795,0.076-1.586,0.146-2.383,0.217c-1.108,0.36-2.533,0.988-3.681,1.3c-0.655,0.178-1.545,0.267-1.732,0.217
				c-0.785-0.754-1.795-1.905-2.381-2.814c-0.31-0.405-0.669-0.646-0.923-0.474c-0.148,0-0.34,0.205-0.377,0.692
				c-0.186,6.73-0.673,8.146,2.383,12.772c6.32,1.328,10.852-1.766,14.938-4.547c1.81-1.234,3.574-1.98,5.413-3.247
				c1.373-0.948,2.419-2.638,3.898-3.468c0.648-0.144,1.296-0.286,1.948-0.432c2.835-1.123,5.761-2.827,9.524-3.03
				c-0.03,7.148-6.155,14.447-10.605,17.323c-0.672,0.427-1.391,0.943-2.184,1.284c-0.861,0.365-1.65,0.75-2.363,1.097
				c-0.58,0.071-1.155,0.143-1.733,0.212c-1.054,0.521-2.478,1.432-3.464,2.166c-1.454,1.082-1.261,2.124-2.166,3.466
				c0,0.146,0,0.288,0,0.43c11.558-0.073,18.706-5.123,25.113-10.39c2.406-1.975,5.385-3.711,6.713-6.713
				c1.605-3.61,2.188-8.036,3.247-11.905c0.221-1.515,0.432-3.031,0.65-4.547c0.636-1.136,3.802-2.824,4.979-3.683
				c1.14-0.828,2.101-2.186,3.247-3.031c2.312-1.709,4.629-3.253,6.928-4.982C469.066,290.787,470.88,289.112,471.729,287.816z"/>
			<path fill="#9B0000" d="M472.166,320.509c-2.131-1.672-3.032-4.146-6.933-4.116c-0.197,0.195-0.372,0.294-0.648,0.434
				c-0.116,5.105,0.559,5.817,1.949,9.526c0.147,0.65,0.286,1.296,0.438,1.952c0.513,0.996,2.525,3.283,1.296,5.192
				c0.241,1.98,3.566,2.7,5.847,1.949c2.442-0.803,4.979-2.49,6.494-4.332C480.579,325.514,475.417,323.056,472.166,320.509z"/>
		</g>
		<g>
			<path fill="#9B0000" d="M349.837,253.391c0.292,0.216,0.58,0.433,0.868,0.65c0.797,1.145,1.746,3.026,2.164,4.332
				c0.882,2.731,1.124,7.318-0.866,8.661c-0.302,0.164-0.053,2.185,0.649,2.162c3.444-0.42,6.906-2.835,8.229-5.413
				c5.979,0.168,9.293-1.561,8.877-7.576c-0.574-0.615-0.847-1.656-1.521-2.166c-1.777-1.356-3.798-2.715-5.626-3.899
				c-0.853-0.551-1.938-0.545-2.813-1.08c-3.063-1.87-5.553-3.787-10.612-3.684c-2.503,2.961-0.951,2.899,0.217,5.413
				C349.551,251.658,349.693,252.522,349.837,253.391z"/>
			<path fill="#9B0000" d="M345.073,293.015c1.632,0.414,5.411-0.424,6.715-0.871c3.634-1.24,7.461-7.657,10.605-9.96
				c2.099-1.532,4.472-3.791,6.93-4.762c0.94-0.143,1.876-0.29,2.816-0.433c0.938-1.009,1.878-2.021,2.813-3.031
				c-0.067-1.241-0.348-2.189-0.866-2.166c-0.864,0-1.73,0-2.598,0c-1.121,0.729-3.21,0.458-4.547,0.867
				c-2.46,0.758-5.04,1.88-7.36,2.603c-0.651,0.068-1.3,0.137-1.947,0.215c-7.164,2.692-14.625,5.779-21.437,8.657
				c-0.457,1.069-1.408,2.711-0.434,3.899C336.521,290.183,342.602,292.38,345.073,293.015z"/>
			<path fill="#9B0000" d="M366.725,312.281c-2.655,0.006-5.021-0.552-7.359,0.219c-1.108,0.359-1.62,1.272-2.813,1.512
				c0.228-1.402,2.969-3.088,3.898-4.113c0.751-0.832,1.487-1.925,2.381-2.598c0.75-0.568,1.813-0.996,2.379-1.73
				c0.385-0.501,0.611-1.347,1.083-1.733c0.359-0.071,0.726-0.141,1.083-0.218c0.551-0.503,0.687-1.491,1.298-1.944
				c1.823-1.357,3.568-1.675,4.766-3.682c0.237-0.425-0.207-1.329-0.652-1.733c-1.429-1.147-8.506-2.077-11.041-1.3
				c-1.278,0.393-3.075,1.163-4.111,1.948c-0.362,0.503-0.724,1.011-1.083,1.516c-1.083,0.145-2.166,0.288-3.247,0.433
				c-1.308,0.793-2.412,2.354-3.681,3.248c-2.619,1.841-5.411,3.391-8.228,4.979c-1.223,0.71-2.653-2.226-3.468-2.812
				c-0.53-0.385-1.237-0.456-1.73-0.868c-0.501,0.05-0.609,0.042-0.865,0.215c-0.503,0.164-0.487,0.226-0.866,0.435
				c-0.095,1.538,0.596,3.381,0.215,4.982c-0.847,3.566-2.422,10.118-1.083,14.286c0.219,0.675,1.018,1.511,1.3,2.164
				c0.354,0.813,0.209,1.604,0.651,2.381c0.623,1.104,2.11,1.464,2.598,2.818c1.89-0.374,5.168-6.348,6.64-8.661
				c0.006-0.01,0.006-0.02,0.012-0.028c0.316-0.55,0.272-0.903,0.272-1.283v-0.062h0.002c0-1.779,0-3.559,0-5.34
				c0.714-0.18,2.168-0.446,2.817-0.868c1.035,0.004,1.369,0.124,1.946,0.436c-0.064,0.675-2.47,6.558-2.813,6.929
				c0.168,1.507,1.152,2.029,2.379,2.383c-0.371,2.955-3.665,3.592-5.628,4.975c-2.328,1.646-4.898,3.462-7.361,4.981
				c-0.973,0.604-2.062,0.696-3.03,1.3c-0.592,0.372-1.133,1.155-1.729,1.513c-1.021,0.617-2.104,0.646-3.037,1.304
				c-0.464,0.327-0.651,1.112-1.296,1.298c-0.893,0.257-1.61-0.526-2.166-0.648c-1.344-0.302-2.28,0.629-3.247,0.867
				c-0.265,5.332,2.065,10.771,8.011,10.822c2.975-3.154,6.224-5.794,8.879-9.309c0.938-0.793,1.874-1.586,2.814-2.381
				c0.638-0.943,0.803-1.785,1.516-2.601c0.262-0.3,0.737-0.188,1.08-0.432c0.793-0.866,1.589-1.733,2.378-2.598
				c0.735-0.527,1.426-0.568,1.952-1.302c0.446,0.088,0.421,0.057,0.647,0.221c0.564,0.757,0.548,2.025,1.085,2.813
				c0.039,1.934,0.188,4.152-1.085,4.766c-0.647,0.139-1.296,0.288-1.949,0.431c-0.538,0.402-0.72,1.306-1.296,1.729
				c0,0.437,0,0.868,0,1.305c0.152,0.294,3.961,1.546,4.545,1.946c0.458,0.313,1.338,1.404,1.517,1.945c0,0.653,0,1.302,0,1.951
				c0.267,0.59,1.326,1.323,1.732,1.948c0.696,0.16,2.158,0.45,2.816,0c0.216-0.074,0.433-0.144,0.647-0.217
				c-0.103-6.632-0.505-12.715-2.381-17.755c-0.638-1.709-3.021-4.859-1.514-7.142c0.001-3.211,2.208-2.31,4.111-3.466
				c2.649-1.607,5.518-3.152,8.011-4.98c0.965-0.706,1.377-1.918,2.164-2.812C367.427,313.619,366.987,313.163,366.725,312.281z"/>
			<path fill="#9B0000" d="M379.284,326.786c-2.268-3.104-4.667-5.957-10.173-5.845c-0.396,0.266-1.242,0.246-1.952,0.217
				c-1.083,4.487-0.951,8.104,1.298,11.473c0.58,0.507,1.154,1.01,1.733,1.516c1.274,1.899,1.995,3.764,4.33,4.549
				c2.365,1.528,5.165-1.435,6.275-2.166c0.319-1.263,1.381-5.36,0.65-6.496C381.344,328.216,380.082,327.881,379.284,326.786z"/>
		</g>
	</g>
</g>
</svg>
